<svg xmlns="http://www.w3.org/2000/svg" width="204" height="118" viewBox="0 0 204 118" fill="none">
<path d="M0.947754 79.9668C0.947754 58.9732 18.1096 42.6292 40.4763 42.6292C53.418 42.6292 65.2344 48.4059 71.9866 57.1415L62.2803 66.8634C59.7057 63.5618 56.4208 60.8843 52.6701 59.0303C48.9193 57.1763 44.7994 56.1936 40.6169 56.1553C27.2532 56.1553 16.5622 66.1589 16.5622 79.9668C16.5622 93.9155 27.2532 103.919 40.6169 103.919C44.949 103.914 49.2214 102.907 53.101 100.976C56.9806 99.0452 60.3627 96.2432 62.9836 92.7884L72.5492 102.228C66.0784 111.387 53.6993 117.445 40.4763 117.445C18.1096 117.445 0.947754 101.101 0.947754 79.9668Z" fill="#255BE3"/>
<path d="M85.2095 45.1653H100.543V114.909H85.2095V45.1653Z" fill="#255BE3"/>
<path d="M129.099 96.1698V58.1278H112.359V45.1653H129.803V30.2302L144.151 23.1854V45.1653H166.94V58.1278H144.151V93.6337C144.151 100.679 148.09 103.778 155.545 103.778C159.425 103.798 163.263 102.981 166.799 101.383V114.627C162.369 116.574 157.569 117.536 152.732 117.445C139.087 117.445 129.099 109.978 129.099 96.1698Z" fill="#255BE3"/>
<path d="M179.037 45.1653H194.37V114.909H179.037V45.1653Z" fill="#255BE3"/>
<path d="M139.648 0.782832C152.241 0.75273 164.657 3.75831 175.846 9.54575C187.035 15.3332 196.669 23.7325 203.935 34.0344H186.07C180.214 27.5154 173.055 22.3026 165.058 18.7343C157.061 15.166 148.403 13.3221 139.648 13.3221C130.893 13.3221 122.236 15.166 114.239 18.7343C106.242 22.3026 99.0827 27.5154 93.227 34.0344H75.3618C82.6277 23.7325 92.2621 15.3332 103.451 9.54575C114.64 3.75831 127.055 0.75273 139.648 0.782832V0.782832Z" fill="#FF3C28"/>
</svg>