<?xml version="1.0" encoding="UTF-8"?>
<svg width="27px" height="28px" viewBox="0 0 27 28" version="1.1" xmlns="http://www.w3.org/2000/svg" xmlns:xlink="http://www.w3.org/1999/xlink">
    <title>77CC79B7-6983-44EF-9B10-9DF7DC1E9265</title>
    <g id="Batch-9-&amp;-10" stroke="none" stroke-width="1" fill="none" fill-rule="evenodd">
        <g id="Investor-Landing-Page" transform="translate(-1016.000000, -2717.000000)">
            <g id="Group-24" transform="translate(1016.000000, 2676.000000)">
                <g id="PDF-Icon" transform="translate(0.000000, 41.000000)">
                    <path d="M5.15467642,25.8494332 C5.15467642,27.0371675 6.14912162,28 7.37569435,28 L24.1394572,28 C25.3660299,28 26.3604751,27.0371675 26.3604751,25.8494332 L26.3604751,8.1670957 L18.1140767,0.000180643995 L7.37569435,0.000180643995 C6.14912162,0.000180643995 5.15467642,0.963013142 5.15467642,2.15074741 L5.15467642,25.8494332 Z" id="Fill-1" fill="#E9EEF3"></path>
                    <path d="M26.3606557,8.16691505 L18.1142573,0 L18.1142573,5.83931717 C18.1142573,7.1245992 19.1665086,8.16691505 20.4644357,8.16691505 L26.3606557,8.16691505 Z" id="Fill-4" fill="#97AFC6"></path>
                    <path d="M0.903219979,12.8334914 L18.6632344,12.8334914 C19.1618119,12.8334914 19.5664544,13.2381339 19.5664544,13.7367114 L19.5664544,23.5971639 C19.5664544,24.0957413 19.1618119,24.5003839 18.6632344,24.5003839 L0.903219979,24.5003839 C0.404642551,24.5003839 0,24.0957413 0,23.5971639 L0,13.7367114 C0,13.2381339 0.404642551,12.8334914 0.903219979,12.8334914" id="Fill-7" fill="#F24646"></path>
                    <path d="M6.02646435,18.8184979 C6.15923768,18.7019826 6.22607596,18.5159193 6.22607596,18.2630177 C6.22607596,18.0092128 6.15923768,17.8276656 6.02465791,17.7201825 C5.89098135,17.6117961 5.70220837,17.5576029 5.46014542,17.5576029 L4.5054419,17.5576029 L4.5054419,18.9937226 L5.46014542,18.9937226 C5.70220837,18.9937226 5.89098135,18.9350133 6.02646435,18.8184979 M5.54685454,19.8346204 L4.5054419,19.8346204 L4.5054419,21.5877704 L3.48660976,21.5877704 L3.48660976,16.7103825 L5.62362823,16.7103825 C6.11678634,16.7103825 6.50878381,16.8368333 6.80233031,17.0879285 C7.09497358,17.3390236 7.24129522,17.7283114 7.24129522,18.2557919 C7.24129522,18.8320462 7.09497358,19.2384952 6.80233031,19.4769453 C6.50878381,19.7153954 6.09059296,19.8346204 5.54685454,19.8346204" id="Fill-9" fill="#FFFFFF"></path>
                    <path d="M10.8867814,17.9549293 C10.7296211,17.6902859 10.417107,17.5575125 9.95104548,17.5575125 L9.00627738,17.5575125 L9.00627738,20.741363 L9.95104548,20.741363 C10.4351714,20.741363 10.7720724,20.5038161 10.9635551,20.0296256 C11.0674254,19.7694983 11.1198121,19.4596938 11.1198121,19.1002123 C11.1198121,18.6034413 11.0421352,18.2222824 10.8867814,17.9549293 M10.1244637,21.5885833 L8.01092896,21.5885833 L8.01092896,16.7111954 L10.1244637,16.7111954 C10.4288488,16.7148083 10.6817504,16.7500339 10.8831685,16.8168721 C11.2272953,16.9288714 11.5063903,17.1357088 11.718647,17.4355778 C11.8902588,17.6776408 12.0067741,17.9404778 12.0681931,18.2231857 C12.1305153,18.5049903 12.162128,18.7741498 12.162128,19.0306643 C12.162128,19.6791763 12.0311611,20.228334 11.7692273,20.6781376 C11.4142618,21.2851014 10.8660073,21.5885833 10.1244637,21.5885833" id="Fill-11" fill="#FFFFFF"></path>
                    <polygon id="Fill-13" fill="#FFFFFF" points="16.4125909 17.5744027 13.9531229 17.5744027 13.9531229 18.696202 16.1063993 18.696202 16.1063993 19.5434223 13.9531229 19.5434223 13.9531229 21.5883123 12.9342907 21.5883123 12.9342907 16.717247 16.4125909 16.717247"></polygon>
                </g>
            </g>
        </g>
    </g>
</svg>